<svg width="100" height="11" viewBox="0 0 100 11" fill="none" xmlns="http://www.w3.org/2000/svg">
<g clip-path="url(#clip0_606_1027)">
<path d="M50.6484 1.16113H55.3969V9.6934H50.6484V1.16113Z" fill="#FF5F00"/>
<path d="M50.9505 5.42689C50.9505 3.69333 51.7645 2.15568 53.0156 1.16072C52.0961 0.437151 50.9354 0 49.6691 0C46.6692 0 44.2422 2.42699 44.2422 5.42689C44.2422 8.42679 46.6692 10.8538 49.6691 10.8538C50.9353 10.8538 52.0961 10.4166 53.0156 9.69299C51.7645 8.71314 50.9505 7.16045 50.9505 5.42689Z" fill="#EB001B"/>
<path d="M61.8047 5.42689C61.8047 8.42672 59.3777 10.8538 56.3778 10.8538C55.1115 10.8538 53.9508 10.4166 53.0312 9.69299C54.2975 8.6981 55.0965 7.16045 55.0965 5.42689C55.0965 3.69333 54.2824 2.15568 53.0312 1.16072C53.9507 0.437151 55.1115 0 56.3778 0C59.3777 0 61.8047 2.4421 61.8047 5.42689Z" fill="#F79E1B"/>
</g>
<g clip-path="url(#clip1_606_1027)">
<path d="M97.57 10.6152L97.2626 9.0779H93.8271L93.2805 10.6043L90.527 10.6098C92.2971 6.35624 93.6108 3.20549 94.468 1.15753C94.6921 0.621849 95.0898 0.348544 95.676 0.352644C96.1243 0.356288 96.8558 0.356742 97.8707 0.354009L99.9997 10.6111L97.57 10.6152ZM94.5992 6.97209H96.8144L95.9876 3.11849L94.5992 6.97209ZM76.8535 0.351277L79.6221 0.354009L75.3421 10.6166L72.5394 10.6139C71.8346 7.90313 71.1386 5.19011 70.4514 2.47486C70.3147 1.93371 70.0441 1.55518 69.5235 1.37617C69.058 1.21674 68.2845 0.970312 67.2031 0.63688V0.354009H71.6266C72.3918 0.354009 72.8387 0.724338 72.9822 1.48413C73.127 2.24574 73.4914 4.18347 74.0754 7.29732L76.8535 0.351277ZM83.4265 0.354009L81.2387 10.6152L78.6027 10.6111L80.7864 0.351277L83.4265 0.354009ZM88.7696 0.164062C89.5581 0.164062 90.5516 0.410037 91.1228 0.63688L90.6609 2.76319C90.1443 2.55548 89.2944 2.27534 88.5797 2.28491C87.5411 2.30267 86.8988 2.7386 86.8988 3.15675C86.8988 3.83728 88.0139 4.18028 89.1618 4.92367C90.4709 5.77091 90.6445 6.53207 90.6281 7.36018C90.6103 9.07517 89.1618 10.7683 86.1063 10.7683C84.7124 10.7478 84.2095 10.6316 83.0726 10.2272L83.5536 8.00792C84.711 8.49167 85.2016 8.64608 86.191 8.64608C87.097 8.64608 87.8745 8.27985 87.8814 7.64169C87.8868 7.188 87.6081 6.96252 86.5914 6.40225C85.5747 5.84197 84.148 5.06442 84.1672 3.50248C84.1904 1.50462 86.083 0.164062 88.7696 0.164062Z" fill="white"/>
</g>
<path d="M0 0.00682749C1.18796 0.0102412 2.37478 0.00796538 3.56387 0.00682749C4.12371 1.56418e-07 4.68355 0.287886 4.98851 0.758972C5.27298 1.16179 5.38108 1.64994 5.52104 2.11534C5.95116 3.56387 6.37446 5.01468 6.80572 6.46321C6.81255 6.59407 7.00713 6.64414 7.04468 6.50532C7.48504 5.04313 7.90947 3.57639 8.34642 2.11306C8.49662 1.5976 8.6252 1.04913 8.97454 0.625839C9.1987 0.351608 9.51276 0.155891 9.85526 0.0648597C10.1466 -0.0159305 10.4504 0.0147926 10.7485 0.010241C11.7908 0.0136547 12.8343 0.00113806 13.8777 0.0170685C13.8709 3.6549 13.8811 7.29387 13.872 10.9317C12.7444 10.9249 11.6156 10.9419 10.4868 10.9226C10.4868 8.78792 10.4913 6.65438 10.4845 4.5197C10.4777 4.32967 10.1636 4.3456 10.142 4.52425C9.47066 6.65665 8.79361 8.78678 8.1325 10.9215C7.33598 10.9397 6.53831 10.9249 5.74065 10.9283C5.07044 8.79589 4.40477 6.66234 3.72659 4.53335C3.69814 4.35698 3.48991 4.35129 3.37839 4.4537C3.38067 6.61 3.37612 8.7663 3.38067 10.9226C2.25416 10.9363 1.12765 10.9226 0.0011377 10.9294C0.0011377 7.28818 0.0011377 3.64807 0.0011377 0.00682749H0ZM15.4161 0.013655C16.5415 -0.00341336 17.6692 0.0227578 18.7945 0C18.8127 2.15971 18.7968 4.32057 18.8025 6.48028C18.8992 6.56676 19.0756 6.59293 19.1348 6.4507C19.8846 4.87927 20.6311 3.30557 21.3798 1.73414C21.6176 1.24599 21.8099 0.716871 22.1968 0.322023C22.3698 0.158167 22.586 1.69559e-08 22.8363 0.010241C23.9844 0.010241 25.1326 0.00341398 26.2807 0.013655C26.2818 3.65035 26.2818 7.28705 26.2807 10.9237C25.1542 10.9328 24.0277 10.9317 22.9 10.9237C22.9 8.76972 22.9046 6.61455 22.8978 4.46053C22.8955 4.27505 22.5814 4.29098 22.5496 4.45711C21.8429 6.01602 21.1397 7.57607 20.4342 9.13384C20.2169 9.6072 20.0109 10.0942 19.6866 10.5061C19.5057 10.736 19.2429 10.9419 18.9356 10.9283C17.7625 10.9283 16.5882 10.9294 15.415 10.9283C15.415 7.29046 15.4161 3.65263 15.415 0.0147927L15.4161 0.013655ZM27.9295 4.99761C31.4683 4.97372 35.0072 4.99761 38.546 4.98623C38.4265 5.47325 38.1113 5.89313 37.7779 6.25953C37.1191 6.97413 36.1735 7.40994 35.2006 7.43611C33.908 7.44294 32.6153 7.43611 31.3227 7.43952C31.3147 8.60358 31.3227 9.76651 31.3193 10.9306C30.1916 10.926 29.064 10.934 27.9352 10.926C27.9295 8.95064 27.9409 6.97526 27.9295 4.99875V4.99761Z" fill="#3DA536"/>
<path d="M27.5 0.0127535C30.1433 0.00933986 32.7878 0.00706403 35.4311 0.0104777C36.1252 0.0605448 36.7943 0.341603 37.3439 0.763761C38.1415 1.38505 38.6798 2.3386 38.7685 3.34791C38.789 3.71203 38.7822 4.07843 38.7276 4.43914C37.1072 4.44825 35.488 4.43914 33.8676 4.44142C33.3112 4.43687 32.7525 4.46418 32.2006 4.38225C30.9569 4.22408 29.7303 3.70634 28.8484 2.79831C28.1054 2.05299 27.6479 1.04937 27.5 0.0138917V0.0127535Z" fill="#008CD2"/>
<defs>
<clipPath id="clip0_606_1027">
<rect width="17.4915" height="10.9322" fill="white" transform="translate(44.2422)"/>
</clipPath>
<clipPath id="clip1_606_1027">
<rect width="32.7966" height="10.9322" fill="white" transform="translate(67.2031)"/>
</clipPath>
</defs>
</svg>
