<svg width="20" height="20" viewBox="0 0 20 20" fill="none" xmlns="http://www.w3.org/2000/svg">
<path fill-rule="evenodd" clip-rule="evenodd" d="M7.22656 5.625C6.34204 5.625 5.625 6.34204 5.625 7.22656V15.8984C5.625 16.783 6.34204 17.5 7.22656 17.5H15.8984C16.783 17.5 17.5 16.783 17.5 15.8984V7.22656C17.5 6.34204 16.783 5.625 15.8984 5.625H7.22656ZM4.375 7.22656C4.375 5.65169 5.65169 4.375 7.22656 4.375H15.8984C17.4733 4.375 18.75 5.65169 18.75 7.22656V15.8984C18.75 17.4733 17.4733 18.75 15.8984 18.75H7.22656C5.65169 18.75 4.375 17.4733 4.375 15.8984V7.22656Z" fill="white"/>
<path fill-rule="evenodd" clip-rule="evenodd" d="M4.37315 1.25L4.375 1.25H12.8125L12.8143 1.25C13.5591 1.25212 14.2728 1.54893 14.7994 2.07558C15.3261 2.60224 15.6229 3.31592 15.625 4.06072C15.625 4.06565 15.625 4.07059 15.6249 4.07552L15.6053 5.01302C15.5981 5.35812 15.3126 5.63205 14.9675 5.62486C14.6223 5.61767 14.3484 5.33209 14.3556 4.98698L14.375 4.05751C14.372 3.64545 14.207 3.25098 13.9155 2.95947C13.6226 2.66656 13.2258 2.50139 12.8115 2.5H4.37599C3.87898 2.50169 3.4028 2.69988 3.05134 3.05134C2.69988 3.4028 2.50169 3.87898 2.5 4.37599V12.8115C2.50139 13.2258 2.66656 13.6226 2.95947 13.9155C3.25239 14.2085 3.64928 14.3736 4.06351 14.375H5C5.34518 14.375 5.625 14.6548 5.625 15C5.625 15.3452 5.34518 15.625 5 15.625H4.0625L4.06072 15.625C3.31592 15.6229 2.60224 15.3261 2.07558 14.7994C1.54893 14.2728 1.25212 13.5591 1.25 12.8143L1.25 12.8125V4.375L1.25 4.37315C1.25245 3.54559 1.58228 2.75263 2.16745 2.16745C2.75263 1.58228 3.54559 1.25245 4.37315 1.25Z" fill="white"/>
</svg>
