<svg width="24" height="20" viewBox="0 0 24 20" fill="none" xmlns="http://www.w3.org/2000/svg">
<path d="M21.9638 18.6032H1.36873L0.570312 17.1345L0.60172 17.0808L10.6472 0H12.625L12.6564 0.053723L22.7631 17.1345L21.9647 18.604L21.9638 18.6032ZM1.49849 18.385H21.8341L22.5118 17.1386L12.5002 0.218201H10.772L0.821573 17.1386L1.49932 18.385H1.49849Z" fill="#D00034"/>
<path d="M13.9087 1.37241L15.7519 4.49251L15.5816 5.15124L13.25 1.20215L13.9087 1.37241Z" fill="#D00034"/>
<path d="M16.0306 6.95641L14.1875 3.83632L14.3578 3.17676L16.6894 7.12585L16.0306 6.95641Z" fill="#D00034"/>
<path d="M9.36574 1.37241L7.52344 4.49251L7.69287 5.15124L10.0245 1.20215L9.36574 1.37241Z" fill="#D00034"/>
<path d="M7.2455 6.95641L9.0878 3.83632L8.91754 3.17676L6.58594 7.12585L7.2455 6.95641Z" fill="#D00034"/>
<path opacity="0.17" d="M1.63437 18.1669L1.07812 17.1429L10.9029 0.436523H12.3815L22.2667 17.1429L21.7104 18.1669H1.63437Z" fill="#B3C4FF"/>
<path d="M8.4178 18.9954L4.79436 19.0028L4.3125 18.5226L8.89801 18.5127L8.4178 18.9954Z" fill="#D00034"/>
<path d="M2.52708 17.9928L6.15052 17.9854L6.63238 18.4656L2.04688 18.4755L2.52708 17.9928Z" fill="#D00034"/>
<path d="M14.8474 18.9954L18.47 19.0028L18.9527 18.5226L14.3672 18.5127L14.8474 18.9954Z" fill="#D00034"/>
<path d="M20.7381 17.9928L17.1155 17.9854L16.6328 18.4656L21.2191 18.4755L20.7381 17.9928Z" fill="#D00034"/>
<path opacity="0.17" d="M2.28757 17.4405L1.92969 16.7817L11.1148 1.16309H12.1686L21.4098 16.7826L21.0528 17.4405H2.28757Z" fill="#D00034"/>
<path d="M18.1406 9.53516L22.6377 17.1358L22.0434 18.2293H22.6377L23.3006 17.1465L18.8126 9.73517L18.1406 9.53516Z" fill="#D00034"/>
<path d="M5.15993 9.53516L0.662865 17.1358L1.25713 18.2293H0.662865L0 17.1465L4.4888 9.73517L5.15993 9.53516Z" fill="#D00034"/>
<path opacity="0.4" d="M16.339 4.55957L16.2109 5.05796L18.7211 9.31534L19.2004 9.4575L16.339 4.55957Z" fill="#D00034"/>
<path opacity="0.4" d="M6.90046 4.55957L7.02857 5.05796L4.51761 9.31534L4.03906 9.4575L6.90046 4.55957Z" fill="#D00034"/>
<path opacity="0.4" d="M8.41406 19.4965L8.78765 19.1221H14.4757L14.8485 19.4965H8.41406Z" fill="#D00034"/>
<path d="M19.6768 10.2636L19.9652 9.528L16.041 2.86133H15.3359L19.6768 10.2636Z" fill="#D00034"/>
<path d="M3.60178 10.1991L3.3125 9.46355L7.23679 2.79688H7.94264L3.60178 10.1991Z" fill="#D00034"/>
<path d="M15.9554 19.4971L15.4545 20.0004H7.81337L7.3125 19.4971H15.9554Z" fill="#D00034"/>
<g clip-path="url(#clip0_581_1198)">
<path d="M18.1393 12.0341C18.0813 11.96 17.7586 11.5845 17.1125 11.3379C16.5476 11.1631 15.1535 10.7011 14.3833 10.1482C14.4338 10.0815 14.4833 10.0127 14.5313 9.94138C15.1633 9.0011 15.5112 7.736 15.5112 6.37895C15.5112 6.15569 15.5033 5.94615 15.4889 5.74781C16.887 5.46813 17.7907 5.0246 17.7907 4.52522C17.7907 3.95334 16.6057 3.45469 14.8501 3.19162C14.8066 2.90805 14.7769 2.59383 14.7769 2.26263C14.7769 1.01304 14.4061 0 13.3674 0C12.1859 0 12.4305 1.39531 12.0012 1.44654C11.572 1.39531 11.8166 0 10.635 0C9.59644 0 9.22551 1.01304 9.22551 2.26263C9.22551 2.59383 9.19584 2.90813 9.15239 3.19162C7.39674 3.45469 6.2118 3.95334 6.2118 4.52522C6.2118 5.0246 7.11542 5.46813 8.51351 5.74781C8.49911 5.94615 8.49117 6.15569 8.49117 6.37895C8.49117 7.73596 8.83919 9.00106 9.47115 9.94138C9.5191 10.0128 9.56854 10.0815 9.61911 10.1482C8.84889 10.7011 7.45481 11.1631 6.89 11.3379C6.2438 11.5844 5.92111 11.9599 5.86309 12.0341C4.67475 13.7983 4.54013 17.7564 4.53906 17.7957C4.5497 18.3223 4.70614 18.5024 4.76015 18.5245C7.37964 19.69 10.4582 19.9941 12.0012 20C13.5442 19.9941 16.6228 19.69 19.2423 18.5245C19.2963 18.5023 19.4527 18.3223 19.4633 17.7956C19.4623 17.7564 19.3277 13.7983 18.1393 12.0341ZM8.90532 3.55462C8.89779 3.58126 8.89382 3.6083 8.89382 3.6356C8.89382 4.15687 10.285 4.57944 12.0012 4.57944C13.7174 4.57944 15.1086 4.15687 15.1086 3.6356C15.1086 3.60826 15.1046 3.58126 15.0971 3.55462C15.3312 3.69624 15.4631 3.85619 15.4631 4.0256C15.4631 4.60628 13.9132 5.07714 12.0012 5.07714C10.0892 5.07714 8.53925 4.60628 8.53925 4.0256C8.53929 3.85619 8.6713 3.69624 8.90532 3.55462ZM8.97336 6.37899C8.97336 6.18827 8.97897 6.00662 8.99002 5.83366C9.86737 5.97528 10.8982 6.05687 12.0012 6.05687C13.1042 6.05687 14.135 5.97528 15.0124 5.83366C15.0235 6.00667 15.0291 6.18827 15.0291 6.37899C15.0291 8.9538 13.6991 10.9706 12.0012 10.9706C10.3034 10.9706 8.97336 8.9538 8.97336 6.37899Z" fill="#D00034"/>
<path d="M11.808 6.68238H12.1937C12.2508 7.42965 12.858 8.01795 13.5992 8.01795C14.3405 8.01795 14.9477 7.42965 15.0048 6.68238H15.0052V6.6767C15.0077 6.64052 15.0095 6.60423 15.0095 6.56728H15.0052V6.35352H8.99219V6.68234H8.99698C9.05402 7.42961 9.66126 8.01791 10.4025 8.01791C11.1437 8.01791 11.751 7.42965 11.808 6.68238Z" fill="#D00034"/>
</g>
<defs>
<clipPath id="clip0_581_1198">
<rect width="20" height="20" fill="white" transform="translate(2)"/>
</clipPath>
</defs>
</svg>
