<svg width="24" height="20" viewBox="0 0 24 20" fill="none" xmlns="http://www.w3.org/2000/svg">
<path d="M21.9638 18.6032H1.36873L0.570312 17.1345L0.60172 17.0808L10.6472 0H12.625L12.6564 0.053723L22.7631 17.1345L21.9647 18.604L21.9638 18.6032ZM1.49849 18.385H21.8341L22.5118 17.1386L12.5002 0.218201H10.772L0.821573 17.1386L1.49932 18.385H1.49849Z" fill="#FF00DD"/>
<path d="M13.9087 1.37241L15.7519 4.49251L15.5816 5.15124L13.25 1.20215L13.9087 1.37241Z" fill="#FF00DD"/>
<path d="M16.0306 6.95641L14.1875 3.83632L14.3578 3.17676L16.6894 7.12585L16.0306 6.95641Z" fill="#FF00DD"/>
<path d="M9.36574 1.37241L7.52344 4.49251L7.69287 5.15124L10.0245 1.20215L9.36574 1.37241Z" fill="#FF00DD"/>
<path d="M7.2455 6.95641L9.0878 3.83632L8.91754 3.17676L6.58594 7.12585L7.2455 6.95641Z" fill="#FF00DD"/>
<path opacity="0.17" d="M1.63437 18.1669L1.07812 17.1429L10.9029 0.436523H12.3815L22.2667 17.1429L21.7104 18.1669H1.63437Z" fill="#B3C4FF"/>
<path d="M8.4178 18.9954L4.79436 19.0028L4.3125 18.5226L8.89801 18.5127L8.4178 18.9954Z" fill="#FF00DD"/>
<path d="M2.52708 17.9928L6.15052 17.9854L6.63238 18.4656L2.04688 18.4755L2.52708 17.9928Z" fill="#FF00DD"/>
<path d="M14.8474 18.9954L18.47 19.0028L18.9527 18.5226L14.3672 18.5127L14.8474 18.9954Z" fill="#FF00DD"/>
<path d="M20.7381 17.9928L17.1155 17.9854L16.6328 18.4656L21.2191 18.4755L20.7381 17.9928Z" fill="#FF00DD"/>
<path opacity="0.17" d="M2.28757 17.4405L1.92969 16.7817L11.1148 1.16309H12.1686L21.4098 16.7826L21.0528 17.4405H2.28757Z" fill="#FF00DD"/>
<path d="M18.1406 9.53516L22.6377 17.1358L22.0434 18.2293H22.6377L23.3006 17.1465L18.8126 9.73517L18.1406 9.53516Z" fill="#FF00DD"/>
<path d="M5.15993 9.53516L0.662865 17.1358L1.25713 18.2293H0.662865L0 17.1465L4.4888 9.73517L5.15993 9.53516Z" fill="#FF00DD"/>
<path opacity="0.4" d="M16.339 4.55957L16.2109 5.05796L18.7211 9.31534L19.2004 9.4575L16.339 4.55957Z" fill="#FF00DD"/>
<path opacity="0.4" d="M6.90046 4.55957L7.02857 5.05796L4.51761 9.31534L4.03906 9.4575L6.90046 4.55957Z" fill="#FF00DD"/>
<path opacity="0.4" d="M8.41406 19.4965L8.78765 19.1221H14.4757L14.8485 19.4965H8.41406Z" fill="#FF00DD"/>
<path d="M19.6768 10.2636L19.9652 9.528L16.041 2.86133H15.3359L19.6768 10.2636Z" fill="#FF00DD"/>
<path d="M3.60178 10.1991L3.3125 9.46355L7.23679 2.79688H7.94264L3.60178 10.1991Z" fill="#FF00DD"/>
<path d="M15.9554 19.4971L15.4545 20.0004H7.81337L7.3125 19.4971H15.9554Z" fill="#FF00DD"/>
<path d="M17.8679 10.8835C17.8612 10.8481 17.8521 10.8011 17.8411 10.7419C17.7617 10.3159 17.5713 9.30027 17.3686 8.22238V8.22117C17.2356 7.51379 17.097 6.77828 16.9804 6.16551C16.9225 5.8591 16.87 5.58262 16.826 5.35559C16.7821 5.12914 16.7473 4.95152 16.7253 4.83984C16.6777 4.60547 16.5795 4.39 16.4458 4.20262C16.2468 3.92063 15.9685 3.69906 15.6511 3.54711C15.3343 3.39512 14.9754 3.31152 14.6037 3.31152C14.3773 3.31152 14.1459 3.34266 13.9177 3.40918C13.6906 3.47633 13.466 3.57945 13.2536 3.72047C12.985 3.89992 12.7372 3.9927 12.5236 4.04273C12.4174 4.06777 12.3185 4.0818 12.2313 4.09035C12.1434 4.0977 12.0664 4.09891 11.9999 4.09891C11.9364 4.09891 11.8809 4.10137 11.8278 4.10137C11.7716 4.10137 11.7192 4.09891 11.6581 4.0916C11.5672 4.08063 11.4579 4.05621 11.309 4.00004C11.1595 3.94328 10.9709 3.85355 10.7304 3.71074C10.2982 3.45438 9.82824 3.33844 9.38023 3.33844C9.13363 3.33844 8.89316 3.37324 8.66734 3.43977C8.32797 3.53988 8.01914 3.71078 7.77379 3.94758C7.65051 4.06598 7.5443 4.20148 7.45883 4.35043C7.37398 4.50059 7.31051 4.66539 7.2757 4.83992C7.2525 4.9516 7.21773 5.12922 7.17438 5.35566C7.04254 6.03621 6.83012 7.15926 6.63117 8.22125C6.42852 9.30035 6.23809 10.316 6.15875 10.742C6.14777 10.8012 6.13859 10.8482 6.13188 10.8836H2L2.24172 11.3761C2.25395 11.3999 2.37355 11.6361 2.67141 11.9761C3.11879 12.4864 3.97023 13.2286 5.45094 13.8389C5.87332 14.0135 6.34754 14.1758 6.87734 14.3211V14.5024L8.50027 16.3792C8.50027 16.3792 10.3765 16.7338 10.5291 16.6832C10.6817 16.6325 12 15.3134 12 15.3134C12 15.3134 13.3184 16.6324 13.4709 16.6831C13.6229 16.7337 15.4998 16.3791 15.4998 16.3791L17.1233 14.5023V14.321C18.8903 13.8376 20.0316 13.1449 20.7378 12.5498C21.48 11.9254 21.7406 11.4121 21.7577 11.3761L22 10.8835H17.8679ZM7.30273 8.34813C7.43578 7.64012 7.57496 6.90523 7.69094 6.29309C7.74953 5.98668 7.80203 5.71141 7.84535 5.48559C7.8893 5.25977 7.92348 5.08273 7.94484 4.97594V4.97531C7.97293 4.83859 8.02848 4.71469 8.10902 4.60117C8.22926 4.4309 8.4075 4.28563 8.62844 4.18309C8.84816 4.08055 9.10816 4.02195 9.38039 4.02195C9.71121 4.02195 10.0585 4.10742 10.382 4.29906C10.7366 4.50902 11.0161 4.6323 11.2518 4.70191C11.3702 4.73672 11.4764 4.75809 11.5728 4.77027C11.6693 4.78246 11.7559 4.78492 11.8279 4.78492C11.8963 4.78492 11.9537 4.78246 12 4.78309C12.0782 4.78309 12.1777 4.78125 12.2924 4.77027C12.4645 4.75563 12.6726 4.72082 12.9003 4.64699C13.1292 4.57313 13.3782 4.46023 13.6339 4.28934C13.7871 4.1868 13.9477 4.11355 14.1106 4.06594C14.2742 4.01773 14.4402 3.99512 14.6038 3.99512C14.7826 3.99512 14.9578 4.02199 15.1214 4.07203C15.3667 4.14711 15.584 4.27344 15.7457 4.43094C15.8269 4.51027 15.8941 4.59574 15.9453 4.68668C15.9972 4.77762 16.0344 4.87406 16.0552 4.97539V4.97602C16.0766 5.08281 16.1114 5.25984 16.1547 5.48566C16.2853 6.16316 16.4971 7.28621 16.6973 8.3482C16.7242 8.48859 16.7498 8.62773 16.7754 8.76508H7.22465C7.25023 8.62766 7.27648 8.48852 7.30273 8.34813ZM20.7024 11.6477C20.2709 12.1018 19.4756 12.7463 18.098 13.2828C16.7204 13.8181 14.7594 14.2441 12 14.2441C10.0737 14.2441 8.53688 14.0366 7.31555 13.7296C5.48387 13.2681 4.36328 12.5833 3.70227 12.0273C3.5027 11.8588 3.34582 11.7026 3.22313 11.5671H12H20.7769C20.7537 11.5934 20.7286 11.6202 20.7024 11.6477Z" fill="#FF00DD"/>
</svg>
