<svg width="24" height="24" viewBox="0 0 24 24" fill="none" xmlns="http://www.w3.org/2000/svg">
<path d="M7.2 12.4C9.52125 12.4 11.4 10.5212 11.4 8.2C11.4 5.87875 9.52125 4 7.2 4C4.87875 4 3 5.87875 3 8.2C3 10.5212 4.87875 12.4 7.2 12.4ZM10.08 13.6H9.76875C8.98875 13.975 8.1225 14.2 7.2 14.2C6.2775 14.2 5.415 13.975 4.63125 13.6H4.32C1.935 13.6 0 15.535 0 17.92V19C0 19.9937 0.80625 20.8 1.8 20.8H12.6C13.5938 20.8 14.4 19.9937 14.4 19V17.92C14.4 15.535 12.465 13.6 10.08 13.6ZM18 12.4C19.9875 12.4 21.6 10.7875 21.6 8.8C21.6 6.8125 19.9875 5.2 18 5.2C16.0125 5.2 14.4 6.8125 14.4 8.8C14.4 10.7875 16.0125 12.4 18 12.4ZM19.8 13.6H19.6575C19.1363 13.78 18.585 13.9 18 13.9C17.415 13.9 16.8638 13.78 16.3425 13.6H16.2C15.435 13.6 14.73 13.8212 14.1113 14.1775C15.0263 15.1637 15.6 16.4725 15.6 17.92V19.36C15.6 19.4425 15.5813 19.5212 15.5775 19.6H22.2C23.1938 19.6 24 18.7937 24 17.8C24 15.4787 22.1213 13.6 19.8 13.6Z" fill="white"/>
</svg>
