<svg width="24" height="20" viewBox="0 0 24 20" fill="none" xmlns="http://www.w3.org/2000/svg">
<path d="M21.9638 18.6032H1.36873L0.570312 17.1345L0.60172 17.0808L10.6472 0H12.625L12.6564 0.053723L22.7631 17.1345L21.9647 18.604L21.9638 18.6032ZM1.49849 18.385H21.8341L22.5118 17.1386L12.5002 0.218201H10.772L0.821573 17.1386L1.49932 18.385H1.49849Z" fill="#00FF44"/>
<path d="M13.9087 1.37241L15.7519 4.49251L15.5816 5.15124L13.25 1.20215L13.9087 1.37241Z" fill="#00FF44"/>
<path d="M16.0306 6.95641L14.1875 3.83632L14.3578 3.17676L16.6894 7.12585L16.0306 6.95641Z" fill="#00FF44"/>
<path d="M9.36574 1.37241L7.52344 4.49251L7.69287 5.15124L10.0245 1.20215L9.36574 1.37241Z" fill="#00FF44"/>
<path d="M7.2455 6.95641L9.0878 3.83632L8.91754 3.17676L6.58594 7.12585L7.2455 6.95641Z" fill="#00FF44"/>
<path opacity="0.17" d="M1.63437 18.1669L1.07812 17.1429L10.9029 0.436523H12.3815L22.2667 17.1429L21.7104 18.1669H1.63437Z" fill="#B3C4FF"/>
<path d="M8.4178 18.9954L4.79436 19.0028L4.3125 18.5226L8.89801 18.5127L8.4178 18.9954Z" fill="#00FF44"/>
<path d="M2.52708 17.9928L6.15052 17.9854L6.63238 18.4656L2.04688 18.4755L2.52708 17.9928Z" fill="#00FF44"/>
<path d="M14.8474 18.9954L18.47 19.0028L18.9527 18.5226L14.3672 18.5127L14.8474 18.9954Z" fill="#00FF44"/>
<path d="M20.7381 17.9928L17.1155 17.9854L16.6328 18.4656L21.2191 18.4755L20.7381 17.9928Z" fill="#00FF44"/>
<path opacity="0.17" d="M2.28757 17.4405L1.92969 16.7817L11.1148 1.16309H12.1686L21.4098 16.7826L21.0528 17.4405H2.28757Z" fill="#00FF44"/>
<path d="M18.1406 9.53516L22.6377 17.1358L22.0434 18.2293H22.6377L23.3006 17.1465L18.8126 9.73517L18.1406 9.53516Z" fill="#00FF44"/>
<path d="M5.15993 9.53516L0.662865 17.1358L1.25713 18.2293H0.662865L0 17.1465L4.4888 9.73517L5.15993 9.53516Z" fill="#00FF44"/>
<path opacity="0.4" d="M16.339 4.55957L16.2109 5.05796L18.7211 9.31534L19.2004 9.4575L16.339 4.55957Z" fill="#00FF44"/>
<path opacity="0.4" d="M6.90046 4.55957L7.02857 5.05796L4.51761 9.31534L4.03906 9.4575L6.90046 4.55957Z" fill="#00FF44"/>
<path opacity="0.4" d="M8.41406 19.4965L8.78765 19.1221H14.4757L14.8485 19.4965H8.41406Z" fill="#00FF44"/>
<path d="M19.6768 10.2636L19.9652 9.528L16.041 2.86133H15.3359L19.6768 10.2636Z" fill="#00FF44"/>
<path d="M3.60178 10.1991L3.3125 9.46355L7.23679 2.79688H7.94264L3.60178 10.1991Z" fill="#00FF44"/>
<path d="M15.9554 19.4971L15.4545 20.0004H7.81337L7.3125 19.4971H15.9554Z" fill="#00FF44"/>
<g clip-path="url(#clip0_581_1143)">
<path d="M2.28906 4.28498C2.28906 4.13006 2.3043 3.97895 2.33478 3.83165L3.82506 5.15279L5.45859 3.33946L4.0003 2.04194C4.19763 1.98708 4.40411 1.95508 4.61897 1.95508C5.23401 1.95546 5.82399 2.19887 6.26039 2.63227C6.69679 3.06567 6.94425 3.65396 6.94887 4.26898V4.28498C6.94887 4.40181 6.94049 4.51609 6.92373 4.62784L8.74087 6.23698C8.07897 6.74683 7.55232 7.41135 7.20716 8.17222L5.32297 6.50441C5.09552 6.57782 4.85797 6.6151 4.61897 6.61489C4.00116 6.61448 3.40878 6.36888 2.97192 5.93203C2.53507 5.49517 2.28947 4.90279 2.28906 4.28498ZM18.2449 13.9566C18.0112 13.9576 17.7877 13.9904 17.5744 14.0549L15.8159 12.4976C15.5264 13.2862 15.051 13.9934 14.43 14.5593L15.9485 15.904C15.9266 16.0304 15.9154 16.1583 15.915 16.2865C15.9154 16.6495 16.0005 17.0073 16.1635 17.3316C16.3266 17.6558 16.5632 17.9375 16.8543 18.1543C17.1455 18.371 17.4832 18.5167 17.8406 18.5799C18.198 18.6431 18.5653 18.6219 18.9131 18.5181L17.3953 17.1696L19.0258 15.3677L20.5352 16.7086C20.5611 16.5715 20.5743 16.4308 20.5748 16.2865V16.2667C20.5697 15.6521 20.322 15.0645 19.8856 14.6318C19.4492 14.1991 18.8594 13.9564 18.2449 13.9566ZM15.6567 8.17222L17.5409 6.50441C17.7633 6.57527 17.9988 6.61489 18.2449 6.61489C18.589 6.61442 18.9288 6.53777 19.2398 6.39044C19.5508 6.24311 19.8253 6.02876 20.0437 5.76276C20.262 5.49677 20.4188 5.18574 20.5027 4.85199C20.5866 4.51824 20.5956 4.17005 20.5291 3.83241L19.0388 5.15355L17.4053 3.34022L18.8635 2.0427C18.6623 1.98557 18.4541 1.95634 18.2449 1.95584C17.6298 1.95622 17.0398 2.19963 16.6034 2.63303C16.1671 3.06643 15.9196 3.65472 15.915 4.26975V4.28575C15.915 4.40257 15.9233 4.51686 15.9401 4.6286L14.123 6.23775C14.7849 6.74759 15.3115 7.41211 15.6567 8.17298V8.17222ZM7.04716 12.4976L5.28944 14.0549C4.94308 13.9506 4.5772 13.9285 4.22078 13.9902C3.86437 14.0519 3.52723 14.1958 3.23608 14.4104C2.94493 14.625 2.70777 14.9045 2.54339 15.2267C2.37901 15.5489 2.29193 15.905 2.28906 16.2667L2.28906 16.2865C2.28906 16.4308 2.30227 16.5715 2.32868 16.7086L3.83878 15.3677L5.46925 17.1696L3.95078 18.5181C4.29858 18.6219 4.66581 18.6431 5.02322 18.5799C5.38064 18.5167 5.71837 18.371 6.00952 18.1543C6.30068 17.9375 6.53721 17.6558 6.70029 17.3316C6.86337 17.0073 6.94849 16.6495 6.94887 16.2865C6.94844 16.1583 6.93723 16.0304 6.91535 15.904L8.43382 14.5593C7.8126 13.9935 7.33694 13.2863 7.04716 12.4976ZM13.8822 14.5219C13.9556 14.6332 14.0007 14.7606 14.0137 14.8932C14.0267 15.0258 14.0072 15.1596 13.9569 15.283C13.9065 15.4064 13.8269 15.5156 13.7248 15.6013C13.6227 15.6869 13.5013 15.7464 13.3711 15.7746C13.2408 15.8027 13.1057 15.7987 12.9774 15.7629C12.849 15.727 12.7313 15.6605 12.6345 15.5689C12.5377 15.4774 12.4647 15.3636 12.4217 15.2374C12.3788 15.1113 12.3673 14.9766 12.3881 14.845H12.2418C12.2598 14.9618 12.2523 15.0811 12.2198 15.1948C12.1873 15.3084 12.1307 15.4137 12.0537 15.5034C11.9768 15.5931 11.8813 15.6651 11.7739 15.7145C11.6665 15.7638 11.5497 15.7894 11.4315 15.7894C11.3133 15.7894 11.1965 15.7638 11.0892 15.7145C10.9818 15.6651 10.8863 15.5931 10.8094 15.5034C10.7324 15.4137 10.6757 15.3084 10.6433 15.1948C10.6108 15.0811 10.6033 14.9618 10.6213 14.845H10.507C10.5222 14.963 10.5122 15.0829 10.4776 15.1968C10.4431 15.3107 10.3848 15.4159 10.3066 15.5056C10.2284 15.5953 10.1321 15.6674 10.024 15.7172C9.91594 15.767 9.79853 15.7932 9.67954 15.7943C9.21935 15.7943 8.84601 15.4134 8.84601 14.9448C8.84601 14.7848 8.88944 14.6362 8.96487 14.509C7.82735 13.6389 7.07992 12.1844 7.07992 10.5372C7.07992 7.87279 9.02963 5.71279 11.4327 5.71279C13.8357 5.71279 15.7854 7.87279 15.7854 10.5372C15.7854 12.1928 15.0304 13.6541 13.883 14.5227L13.8822 14.5219ZM10.6868 10.016C10.5832 9.81935 10.4378 9.64772 10.2609 9.51317C10.0501 9.38436 9.80845 9.31487 9.56144 9.31203C9.47968 9.31245 9.3982 9.32165 9.3184 9.33946C9.00982 9.37756 8.74925 9.5886 8.56944 9.83241C8.41173 10.0282 8.28906 10.2659 8.28601 10.5219C8.26163 10.7337 8.3043 10.9456 8.34316 11.1528C8.39344 11.3981 8.5664 11.5977 8.76221 11.7425C8.85287 11.8149 8.98316 11.9147 9.09744 11.8309C9.17363 11.7288 9.10963 11.5795 9.17897 11.4667C9.192 11.4136 9.2163 11.364 9.25021 11.3211C9.28413 11.2783 9.32687 11.2432 9.37554 11.2183C9.57592 11.1177 9.77706 11.0187 9.99116 10.9478C10.1649 10.8968 10.3081 10.781 10.4559 10.6819C10.6502 10.5318 10.779 10.2568 10.6868 10.016ZM11.4456 11.7875C11.2331 11.7821 10.9656 12.7299 11.0083 13.1437C11.1416 13.6922 11.1889 12.7589 11.4456 12.7581C11.6917 12.7688 11.6552 13.7143 11.8494 13.1421C11.9089 12.7612 11.6788 11.7936 11.4456 11.7875ZM14.5207 11.1528C14.5595 10.9456 14.6022 10.7337 14.5778 10.5219C14.5748 10.2659 14.4521 10.0282 14.2944 9.83241C14.1146 9.5886 13.854 9.37832 13.5454 9.33946C13.4656 9.32165 13.3842 9.31245 13.3024 9.31203C13.0586 9.31127 12.8117 9.38822 12.603 9.51317C12.4239 9.64346 12.283 9.82251 12.1771 10.016C12.0849 10.2568 12.2136 10.5318 12.4079 10.6819C12.5557 10.781 12.699 10.8968 12.8727 10.9486C13.086 11.0187 13.2879 11.1177 13.4883 11.2183C13.537 11.2432 13.5797 11.2783 13.6136 11.3211C13.6475 11.364 13.6718 11.4136 13.6849 11.4667C13.7542 11.5787 13.6902 11.7288 13.7656 11.8309C13.8807 11.9147 14.011 11.8149 14.1009 11.7425C14.2974 11.5977 14.4704 11.3981 14.5207 11.1528Z" fill="#00FF44"/>
</g>
<defs>
<clipPath id="clip0_581_1143">
<rect width="18.2857" height="18.2857" fill="white" transform="translate(2.28906 1.14258)"/>
</clipPath>
</defs>
</svg>
