<svg width="24" height="24" viewBox="0 0 24 24" fill="none" xmlns="http://www.w3.org/2000/svg">
<path d="M15.5009 10.7497C15.5009 11.7442 15.1058 12.6981 14.4025 13.4014C13.6993 14.1047 12.7454 14.4998 11.7508 14.4998C10.7562 14.4998 9.80236 14.1047 9.09908 13.4014C8.3958 12.6981 8.0007 11.7442 8.0007 10.7497C8.0007 9.75506 8.3958 8.8012 9.09908 8.09792C9.80236 7.39464 10.7562 6.99953 11.7508 6.99953C12.7454 6.99953 13.6993 7.39464 14.4025 8.09792C15.1058 8.8012 15.5009 9.75506 15.5009 10.7497ZM14.2509 10.7497C14.2509 10.0866 13.9875 9.45068 13.5186 8.98183C13.0498 8.51297 12.4139 8.24957 11.7508 8.24957C11.0878 8.24957 10.4518 8.51297 9.98299 8.98183C9.51414 9.45068 9.25073 10.0866 9.25073 10.7497C9.25073 11.4127 9.51414 12.0486 9.98299 12.5175C10.4518 12.9863 11.0878 13.2497 11.7508 13.2497C12.4139 13.2497 13.0498 12.9863 13.5186 12.5175C13.9875 12.0486 14.2509 11.4127 14.2509 10.7497ZM17.9385 16.9436C19.5797 15.3016 20.5016 13.075 20.5016 10.7534C20.5016 8.43181 19.5797 6.20525 17.9385 4.56321C17.126 3.75058 16.1613 3.10596 15.0996 2.66616C14.0379 2.22636 12.9 2 11.7508 2C10.6016 2 9.46371 2.22636 8.40202 2.66616C7.34033 3.10596 6.37567 3.75058 5.56312 4.56321C3.92194 6.20525 3 8.43181 3 10.7534C3 13.075 3.92194 15.3016 5.56312 16.9436L7.46443 18.8174L10.0183 21.2987L10.1845 21.4462C11.1533 22.2313 12.5721 22.1812 13.4846 21.2987L16.5285 18.3361L17.9385 16.9436ZM6.4444 5.44449C7.14097 4.74714 7.96816 4.19393 8.87867 3.81649C9.78918 3.43905 10.7652 3.24477 11.7508 3.24477C12.7365 3.24477 13.7124 3.43905 14.623 3.81649C15.5335 4.19393 16.3607 4.74714 17.0572 5.44449C18.4251 6.81415 19.2115 8.65894 19.2525 10.5942C19.2935 12.5295 18.5859 14.406 17.2772 15.8323L17.0572 16.0623L15.4059 17.6924L12.6183 20.4037L12.5008 20.5037C12.2843 20.6658 12.0211 20.7533 11.7506 20.7531C11.4801 20.7529 11.217 20.6649 11.0008 20.5024L10.8845 20.4024L7.15942 16.7711L6.4444 16.0623L6.22439 15.8336C4.91574 14.4072 4.20814 12.5308 4.24913 10.5955C4.29012 8.66019 5.07653 6.81415 6.4444 5.44449Z" fill="#EFEFEF"/>
</svg>
