<svg width="32" height="32" viewBox="0 0 32 32" fill="none" xmlns="http://www.w3.org/2000/svg">
<g clip-path="url(#clip0_612_1136)">
<path d="M32 25.9525C32 29.8403 29.8403 32.0013 25.9525 32.0013H6.04877C2.16101 32.0013 0 29.8415 0 25.9525V6.04877C0 2.15973 2.15973 0 6.04877 0H25.9614C29.8415 0 32.0013 2.15973 32.0013 6.04877V25.9525H32Z" fill="#FEE600"/>
<path d="M20.5716 14.4404V11.3841L21.6751 10.2806V12.9282L22.6356 13.8886L26.4991 10.0251L27.4506 10.9766C27.4429 10.2563 27.2986 8.16809 25.531 6.43239C23.6267 4.59196 21.5627 5.42469 20.859 6.12842L17.0032 9.98426L17.9879 10.969L15.9955 12.9767L14.003 10.9843L14.9865 10.0009L11.1306 6.14502C10.4269 5.44129 8.36297 4.60857 6.45868 6.449C4.69105 8.1847 4.54673 10.2729 4.53906 10.9932L5.49057 10.0417L9.35535 13.9065L10.3158 12.9461V10.2984L11.4193 11.4019V14.4583L12.9711 16.0024L5.32326 23.6502L8.34764 26.6669L15.9955 19.0268L23.6433 26.6746L26.6677 23.6579L19.0186 16.0011L20.5704 14.4417L20.5716 14.4404Z" fill="#2B2D33"/>
</g>
<defs>
<clipPath id="clip0_612_1136">
<rect width="32" height="32" fill="white"/>
</clipPath>
</defs>
</svg>
