<svg width="32" height="32" viewBox="0 0 32 32" fill="none" xmlns="http://www.w3.org/2000/svg">
<g clip-path="url(#clip0_612_1128)">
<path d="M0 0H32V32H0V0Z" fill="#179F31"/>
<path d="M10.229 6.57986C12.099 5.41204 14.326 4.81638 16.529 4.91725C18.4455 5.00638 20.3338 5.60943 21.9455 6.64943C22.2929 6.88334 22.6481 7.10595 22.9716 7.37291C22.3916 7.79551 21.822 8.23291 21.2464 8.66073C21.1368 8.7503 21.0116 8.81986 20.9116 8.92117C19.5686 8.01899 17.9725 7.49291 16.3538 7.44943C15.5029 7.41943 14.6473 7.51899 13.8255 7.74204C12.3586 8.14551 11.002 8.94986 9.95291 10.0529C8.60334 11.4564 7.75856 13.3368 7.61639 15.2799C7.46813 17.1029 7.94247 18.9659 8.92726 20.5064C9.72465 21.7607 10.8538 22.8016 12.172 23.4886C13.3616 24.1138 14.7016 24.4516 16.0455 24.459C17.6894 24.4829 19.3364 24.0099 20.7173 23.1173C22.0055 22.2929 23.0616 21.1112 23.7386 19.7399C24.3573 18.4973 24.6573 17.102 24.6194 15.7155C25.3968 15.1538 26.1642 14.579 26.9407 14.0159C27.1168 15.0146 27.182 16.0359 27.0833 17.0464C26.9464 18.6499 26.4481 20.2203 25.6425 21.6129C24.8981 22.9059 23.879 24.0381 22.6807 24.9251C21.4412 25.8373 20.009 26.4886 18.5038 26.8116C16.9294 27.1594 15.2781 27.1468 13.7081 26.7794C12.1773 26.4281 10.7242 25.7425 9.47552 24.789C8.30378 23.8938 7.30856 22.7664 6.57508 21.4864C5.52552 19.672 5.00769 17.5568 5.09552 15.4625C5.18117 13.0677 6.07595 10.7081 7.61204 8.86769C8.35334 7.97117 9.24421 7.20073 10.2277 6.57943L10.229 6.57986ZM19.5794 13.0612C21.3277 11.7646 23.0751 10.4673 24.8316 9.18117C25.2664 9.91508 25.7116 10.6425 26.1573 11.3699C25.7907 11.6612 25.406 11.9303 25.0325 12.2133C22.0729 14.4007 19.1146 16.5912 16.1568 18.7799C16.1077 18.7916 16.0677 18.7538 16.0277 18.7338C14.819 18.002 13.6103 17.2703 12.4003 16.5407C12.2177 16.4364 12.0446 16.3164 11.8577 16.2203C11.8451 15.1559 11.8516 14.0907 11.826 13.0264C13.2412 13.9073 14.662 14.779 16.0768 15.6607C17.2364 14.7833 18.4081 13.9225 19.5799 13.0607L19.5794 13.0612Z" fill="white"/>
</g>
<defs>
<clipPath id="clip0_612_1128">
<rect width="32" height="32" rx="5" fill="white"/>
</clipPath>
</defs>
</svg>
