<svg width="65" height="36" viewBox="0 0 65 36" fill="none" xmlns="http://www.w3.org/2000/svg">
<g clip-path="url(#clip0_606_1002)">
<path d="M12.4971 19.793L16.9568 22.6912V28.0684L12.4766 35.9997L12.4971 19.793Z" fill="#62B22F"/>
<path d="M8.79909 17.502L13.2498 20.0509L0.0390625 27.9822L4.35098 20.2249L8.79909 17.502Z" fill="#974995"/>
<path d="M29.5472 10.1741L21.0455 10.1322L16.9507 7.69886L12.5 0L29.5472 10.1741Z" fill="#EE7024"/>
<path d="M12.5035 0L16.9542 7.69886L16.9632 18.3073L12.4766 16.9522L12.5035 0Z" fill="#FBB61B"/>
<path d="M0 7.74609L4.36203 15.5847L4.34789 20.2253L0.0359755 27.9826L0 7.74609Z" fill="#5A58A3"/>
<path d="M0 7.74609L29.4806 25.5759L21.0328 25.6343L4.36203 15.5847L0 7.74609Z" fill="#2188CB"/>
<path d="M21.0479 10.1328L29.5497 10.1747L16.966 17.8215L16.9531 12.5992L21.0479 10.1328Z" fill="#DA0954"/>
<path d="M45.5632 11.3961C46.5975 10.4639 48.0134 9.99397 49.4062 10.0371C50.8619 10.0079 52.3279 10.1057 53.7759 9.93555C53.4624 10.8855 52.8264 11.7085 52.4024 12.6178C51.3591 12.6369 50.3146 12.5988 49.2725 12.6343C47.9325 12.7423 46.6553 13.8155 46.5243 15.1655C47.7436 13.9641 49.6516 13.8828 51.2319 14.2777C52.2906 14.6334 53.2337 15.4182 53.6179 16.4749C53.9725 17.4033 54.0303 18.4231 53.799 19.387C53.4483 20.7091 52.3729 21.7328 51.1047 22.2166C49.6092 22.7729 47.8888 22.8021 46.3997 22.2128C44.9863 21.6439 43.9867 20.323 43.645 18.874C43.2711 17.5849 43.3212 15.676 43.7041 14.3654C44.0355 13.2351 44.687 12.1911 45.5632 11.3961ZM49.1813 16.4304C48.386 16.2742 47.4905 16.5955 47.078 17.2864C46.329 18.5412 47.3581 20.4145 49.0374 20.1783C50.8696 19.9217 51.3463 17.0019 49.1813 16.4304ZM37.3428 13.1855C38.99 12.7855 40.8736 12.9023 42.2805 13.9171C41.8153 14.6588 41.3952 15.4258 40.9686 16.1891C40.2812 15.9631 39.6131 15.6036 38.8692 15.6214C38.0803 15.5973 37.2259 15.9021 36.7775 16.5727C36.2995 17.2826 36.2764 18.258 36.7415 18.9819C37.1552 19.6652 37.9685 19.9814 38.7407 20.0525C39.3433 19.9852 39.9562 19.9014 40.5138 19.6487C40.6474 19.5661 40.8016 19.5699 40.9532 19.5801C41.2256 20.3497 41.8218 20.986 42.0569 21.7645C40.5395 22.5659 38.7304 22.7297 37.0692 22.3309C35.9244 21.9982 34.8335 21.3505 34.1783 20.3421C33.1414 18.7698 33.1812 16.546 34.3723 15.0652C35.0905 14.1076 36.189 13.484 37.3428 13.1855ZM55.3987 13.2262C58.5992 13.2033 61.801 13.202 65.0003 13.2262C64.972 16.231 64.99 19.2384 64.9926 22.2433C63.9159 22.2484 62.8379 22.2509 61.7612 22.2433C61.8113 20.271 61.7111 18.3012 61.774 16.3352C61.7792 16.1815 61.7432 16.0393 61.6674 15.9072C60.6845 15.9288 59.699 15.93 58.7161 15.9072C58.6544 18.0154 58.7046 20.1287 58.6917 22.2395C57.5957 22.2586 56.4998 22.2484 55.4051 22.2446C55.4064 19.2384 55.4192 16.2336 55.3987 13.2287V13.2262Z" fill="white"/>
<path d="M16.9568 28.0692L21.0349 25.6346L29.4827 25.5762L12.4766 36.0005L16.9568 28.0692Z" fill="#037F37"/>
</g>
<defs>
<clipPath id="clip0_606_1002">
<rect width="65" height="36" fill="white"/>
</clipPath>
</defs>
</svg>
