<svg width="24" height="24" viewBox="0 0 24 24" fill="none" xmlns="http://www.w3.org/2000/svg">
<path d="M21.9591 5.54206C21.9491 5.38242 21.8858 5.23074 21.7794 5.11135C21.6729 4.99195 21.5295 4.91173 21.372 4.88355C17.5312 4.19513 15.9151 3.65671 12.4466 2.09593C12.1002 1.96691 11.8854 1.96914 11.5537 2.09593C8.08527 3.6585 6.46913 4.19424 2.62834 4.88355C2.47088 4.91173 2.32744 4.99195 2.22099 5.11135C2.11455 5.23074 2.05126 5.38242 2.04126 5.54206C1.86938 8.26986 2.23502 10.8101 3.12881 13.0937C3.85969 14.9558 4.94241 16.6597 6.31778 18.1122C8.31207 20.2298 10.5233 21.466 11.6635 21.9338C11.8798 22.0221 12.1219 22.0221 12.3381 21.9338C13.5435 21.4463 15.6727 20.2454 17.6826 18.1114C19.0578 16.6591 20.1406 14.9555 20.8715 13.0937C21.7653 10.8106 22.131 8.26986 21.9591 5.54206Z" fill="#25E9FF"/>
</svg>
