<svg width="32" height="32" viewBox="0 0 32 32" fill="none" xmlns="http://www.w3.org/2000/svg">
<g clip-path="url(#clip0_612_1144)">
<path d="M0 0H32V32H0V0Z" fill="#FBD836"/>
<path d="M12.0072 12.7021C11.995 13.6048 12.0007 14.5082 12.0072 15.4109C12.7431 14.7693 13.7605 14.6676 14.6981 14.7522C14.7079 15.8679 14.6981 16.9845 14.7022 18.1002C14.7103 18.7646 14.5355 19.4257 14.1972 19.9958C15.3999 20.0023 16.6043 20.0023 17.807 19.9958C17.5948 19.5429 17.3256 19.0687 17.3166 18.5353C17.2825 17.2756 17.3069 16.0151 17.3036 14.7546C18.238 14.6806 19.2594 14.7774 19.9962 15.4068C20.01 14.5058 20.0003 13.6039 19.9978 12.7029C17.3337 12.6972 14.6696 12.6988 12.0055 12.7029L12.0072 12.7021Z" fill="#FDFFFD"/>
<path d="M8.0707 7.92969C13.6575 7.98905 19.2483 8.00938 24.8433 8.00532C24.9539 9.77812 24.8937 11.5599 24.8855 13.3351C24.7953 15.5788 25.2759 18.0493 24.0317 20.0742C23.573 20.9476 22.8558 21.6901 22.036 22.2325C20.0355 23.406 18.0301 24.5957 16.002 25.7009C14.3764 24.8397 12.8077 23.8476 11.1902 22.962C10.5014 22.5407 9.75731 22.204 9.18806 21.6145C8.27482 20.8232 7.66654 19.7311 7.33393 18.5795C6.95335 17.215 7.25586 15.7902 7.10786 14.3996C7.18593 12.2706 6.96961 10.1302 7.11274 8.00694C7.42908 7.94514 7.75274 7.96791 8.07152 7.92969H8.0707Z" fill="#FDFFFD"/>
<path d="M12.0061 12.7026C14.6694 12.6985 17.3343 12.6977 19.9984 12.7026C20 13.6036 20.0098 14.5055 19.9968 15.4065C19.26 14.7771 18.2386 14.6803 17.3042 14.7543C17.3075 16.014 17.2831 17.2753 17.3172 18.535C17.3254 19.0684 17.5946 19.5425 17.8076 19.9955C16.6049 20.0028 15.4005 20.0028 14.1978 19.9955C14.5361 19.4246 14.7109 18.7635 14.7028 18.0999C14.6987 16.9842 14.7085 15.8676 14.6987 14.7519C13.7611 14.6673 12.7437 14.7698 12.0078 15.4106C12.0004 14.5079 11.9948 13.6044 12.0078 12.7018L12.0061 12.7026Z" fill="#333536"/>
</g>
<defs>
<clipPath id="clip0_612_1144">
<rect width="32" height="32" rx="5" fill="white"/>
</clipPath>
</defs>
</svg>
