<svg width="24" height="24" viewBox="0 0 24 24" fill="none" xmlns="http://www.w3.org/2000/svg">
<path d="M11.6598 12C12.9722 12 14.2309 11.4732 15.1589 10.5355C16.0869 9.59785 16.6082 8.32608 16.6082 7C16.6082 5.67392 16.0869 4.40215 15.1589 3.46447C14.2309 2.52678 12.9722 2 11.6598 2C10.3474 2 9.08872 2.52678 8.16071 3.46447C7.23269 4.40215 6.71134 5.67392 6.71134 7C6.71134 8.32608 7.23269 9.59785 8.16071 10.5355C9.08872 11.4732 10.3474 12 11.6598 12ZM9.89304 13.875C6.08505 13.875 3 16.9922 3 20.8398C3 21.4805 3.51418 22 4.1482 22H19.1714C19.8054 22 20.3196 21.4805 20.3196 20.8398C20.3196 16.9922 17.2345 13.875 13.4265 13.875H9.89304Z" fill="white"/>
</svg>
