<svg width="24" height="24" viewBox="0 0 24 24" fill="none" xmlns="http://www.w3.org/2000/svg">
<path d="M23.582 5.97307C23.7705 6.49766 23.1557 7.70258 21.7377 9.58782C21.541 9.85012 21.2746 10.1985 20.9385 10.6329C20.6107 11.0509 20.3852 11.346 20.2623 11.5182C20.1393 11.6903 20.0143 11.8932 19.8873 12.1268C19.7602 12.3604 19.7111 12.5325 19.7398 12.6432C19.7684 12.7538 19.8217 12.8952 19.8996 13.0673C19.9775 13.2395 20.1107 13.4157 20.2992 13.596C20.4877 13.7763 20.7213 13.9936 21 14.2477C21.0328 14.2641 21.0533 14.2804 21.0615 14.2968C22.2172 15.3706 23 16.2763 23.4098 17.0141C23.4344 17.055 23.4611 17.1063 23.4898 17.1677C23.5184 17.2292 23.5471 17.3378 23.5758 17.4936C23.6045 17.6493 23.6025 17.7886 23.5697 17.9116C23.5369 18.0345 23.4344 18.1472 23.2623 18.2497C23.0902 18.3522 22.8484 18.4034 22.5369 18.4034L19.3893 18.4526C19.1926 18.4936 18.9631 18.4731 18.7008 18.3911C18.4385 18.3091 18.2254 18.219 18.0615 18.1206L17.8156 17.9731C17.5697 17.8009 17.2828 17.5386 16.9549 17.1862C16.627 16.8337 16.3463 16.5161 16.1127 16.2333C15.8791 15.9505 15.6291 15.7128 15.3627 15.5202C15.0963 15.3276 14.8648 15.2641 14.668 15.3296C14.6434 15.3378 14.6107 15.3522 14.5697 15.3727C14.5287 15.3932 14.459 15.4526 14.3607 15.5509C14.2623 15.6493 14.1742 15.7702 14.0963 15.9136C14.0184 16.0571 13.9488 16.2702 13.8873 16.553C13.8258 16.8358 13.7992 17.1534 13.8074 17.5059C13.8074 17.6288 13.793 17.7415 13.7643 17.844C13.7357 17.9464 13.7049 18.0222 13.6721 18.0714L13.623 18.1329C13.4754 18.2886 13.2582 18.3788 12.9713 18.4034H11.5574C10.9754 18.4362 10.377 18.3686 9.76229 18.2005C9.14754 18.0325 8.60861 17.8153 8.14549 17.5489C7.68238 17.2825 7.26025 17.012 6.8791 16.7374C6.49795 16.4628 6.20902 16.2272 6.01229 16.0304L5.70492 15.7354C5.62295 15.6534 5.51025 15.5304 5.3668 15.3665C5.22336 15.2026 4.93033 14.8296 4.4877 14.2477C4.04508 13.6657 3.61066 13.0468 3.18443 12.3911C2.7582 11.7354 2.25615 10.8706 1.67828 9.79684C1.10041 8.72307 0.565574 7.60831 0.0737705 6.45258C0.0245902 6.32143 0 6.21077 0 6.12061C0 6.03045 0.0122951 5.96487 0.0368852 5.92389L0.0860656 5.85012C0.209016 5.69438 0.442623 5.61651 0.786885 5.61651L4.15574 5.59192C4.2541 5.60831 4.34836 5.63495 4.43852 5.67184C4.52869 5.70872 4.59426 5.74356 4.63525 5.77635L4.69672 5.81323C4.82787 5.9034 4.92623 6.03454 4.9918 6.20667C5.15574 6.61651 5.34426 7.04069 5.55738 7.47922C5.77049 7.91774 5.93852 8.25176 6.06148 8.48126L6.2582 8.83782C6.4959 9.32963 6.72541 9.75585 6.94672 10.1165C7.16803 10.4772 7.3668 10.7579 7.54303 10.9587C7.71926 11.1595 7.88934 11.3173 8.05328 11.4321C8.21721 11.5468 8.35656 11.6042 8.47131 11.6042C8.58607 11.6042 8.69672 11.5837 8.80328 11.5427C8.81967 11.5345 8.84016 11.5141 8.86475 11.4813C8.88934 11.4485 8.93852 11.3583 9.01229 11.2108C9.08607 11.0632 9.14139 10.8706 9.17828 10.6329C9.21516 10.3952 9.2541 10.0632 9.29508 9.637C9.33607 9.21077 9.33607 8.69848 9.29508 8.10012C9.27869 7.77225 9.2418 7.47307 9.18443 7.20258C9.12705 6.93208 9.06967 6.74356 9.01229 6.637L8.93852 6.48946C8.73361 6.21077 8.38525 6.03454 7.89344 5.96077C7.78688 5.94438 7.80738 5.84602 7.95492 5.66569C8.08607 5.50995 8.2418 5.387 8.42213 5.29684C8.85656 5.08372 9.83607 4.98536 11.3607 5.00176C12.0328 5.00995 12.5861 5.06323 13.0205 5.16159C13.1844 5.20258 13.3217 5.2579 13.4324 5.32758C13.543 5.39725 13.627 5.49561 13.6844 5.62266C13.7418 5.74971 13.7848 5.88085 13.8135 6.0161C13.8422 6.15135 13.8566 6.33782 13.8566 6.57553C13.8566 6.81323 13.8525 7.03864 13.8443 7.25176C13.8361 7.46487 13.8258 7.75381 13.8135 8.11856C13.8012 8.48331 13.7951 8.82143 13.7951 9.1329C13.7951 9.22307 13.791 9.3952 13.7828 9.6493C13.7746 9.9034 13.7725 10.1001 13.7766 10.2395C13.7807 10.3788 13.7951 10.5448 13.8197 10.7374C13.8443 10.93 13.8914 11.0899 13.9611 11.2169C14.0307 11.344 14.123 11.4444 14.2377 11.5182C14.3033 11.5345 14.373 11.5509 14.4467 11.5673C14.5205 11.5837 14.627 11.5386 14.7664 11.4321C14.9057 11.3255 15.0615 11.1841 15.2336 11.0079C15.4057 10.8317 15.6189 10.5571 15.8729 10.1841C16.127 9.81118 16.4057 9.37061 16.709 8.86241C17.2008 8.00995 17.6393 7.08782 18.0246 6.09602C18.0574 6.01405 18.0984 5.94233 18.1475 5.88085C18.1967 5.81938 18.2418 5.77635 18.2828 5.75176L18.332 5.71487L18.3934 5.68413L18.5533 5.64725L18.7992 5.6411L22.3402 5.61651C22.6598 5.57553 22.9221 5.58577 23.127 5.64725C23.332 5.70872 23.459 5.77635 23.5082 5.85012L23.582 5.97307Z" fill="#040A21"/>
</svg>
