<svg width="371" height="154" viewBox="0 0 371 154" fill="none" xmlns="http://www.w3.org/2000/svg">
<path d="M58.963 11H146L139.037 17H52L58.963 11Z" fill="#00D5FF"/>
<path d="M230.963 11H318L311.037 17H224L230.963 11Z" fill="#00D5FF"/>
<path d="M360 53.07V117.442C360 119.173 342.327 132.086 342.327 132.086C342.327 132.086 280.521 131.805 278.54 132.086C276.59 132.389 263.839 142.447 262.721 142.837C261.602 143.204 185 142.837 185 142.837C185 142.837 108.398 143.204 107.279 142.837C106.161 142.469 93.3774 132.389 91.46 132.086C89.5105 131.805 27.6725 132.086 27.6725 132.086C27.6725 132.086 10 119.173 10 117.442V53.07C10 53.07 10.5114 26.962 10.6392 25.8372C10.799 24.7124 31.3477 4.16343 32.4023 4.16343C33.4569 4.16343 44.0668 3.79571 46.1441 4.16343C48.2213 4.53115 54.9004 13.2266 57.2653 13.2266C59.6301 13.2266 133.516 12.9238 135.178 13.2266C136.84 13.5078 143.903 16.6659 143.903 16.6659H226.033C226.033 16.6659 233.096 13.4862 234.758 13.2266C236.42 12.9238 310.306 13.2266 312.671 13.2266C315.036 13.2266 321.715 4.53115 323.792 4.16343C325.869 3.79571 336.415 4.16343 337.534 4.16343C338.652 4.16343 359.169 24.7124 359.329 25.8372C359.489 26.962 359.968 53.07 359.968 53.07H360Z" fill="#00D5FF" fill-opacity="0.1"/>
<path d="M201.702 31.6628H167.498L166.172 29.2222L166.224 29.1344L182.907 0.765625H186.192L186.244 0.854848L203.029 29.2222L201.703 31.6628H201.702ZM167.713 31.3004H201.486L202.612 29.2305L185.985 1.12801H183.115L166.588 29.2291L167.713 31.2991V31.3004Z" fill="#00D5FF"/>
<path d="M177.264 7.39615L170.734 18.4529L171.336 20.7892L179.6 6.79492L177.264 7.39615Z" fill="#00D5FF"/>
<path d="M191.938 7.39615L198.466 18.4529L197.865 20.7892L189.602 6.79492L191.938 7.39615Z" fill="#00D5FF"/>
<path opacity="0.17" d="M168.487 30.4416L167.594 28.7985L183.361 1.98633H185.735L201.6 28.7985L200.708 30.4416H168.487Z" fill="url(#paint0_linear_529_794)"/>
<path d="M190.275 32.9994H178.929L177.422 31.4922H191.784L190.275 32.9994Z" fill="#00D5FF"/>
<path d="M169.97 23.0597L169.367 20.7234L170.117 19.4551L170.729 21.8751L169.97 23.0597Z" fill="#00D5FF"/>
<path d="M168.609 25.3599L168.008 23.0236L168.757 21.7539L169.369 24.1753L168.609 25.3599Z" fill="#00D5FF"/>
<path d="M199.229 23.0597L199.83 20.7234L199.081 19.4551L198.469 21.8751L199.229 23.0597Z" fill="#00D5FF"/>
<path d="M200.589 25.3599L201.19 23.0236L200.44 21.7539L199.828 24.1753L200.589 25.3599Z" fill="#00D5FF"/>
<path d="M185.713 0.367188H183.387L183.047 0.94645H186.056L185.713 0.367188Z" fill="#00D5FF"/>
<path d="M171.969 14.9304L175.019 9.74312L176.114 9.45898L172.253 16.0244L171.969 14.9304Z" fill="#00D5FF"/>
<path d="M197.302 14.9304L194.25 9.74312L193.156 9.45898L197.018 16.0244L197.302 14.9304Z" fill="#00D5FF"/>
<path d="M191.742 32.9864L193.072 31.6562H194.014L192.699 32.9726L191.742 32.9864Z" fill="#00D5FF"/>
<path d="M194.787 32.6638L195.793 31.6562H194.851L193.844 32.6638H194.787Z" fill="#00D5FF"/>
<path d="M196.974 32.2369L197.554 31.6562H196.612L196.031 32.2369H196.974Z" fill="#00D5FF"/>
<path d="M177.405 32.9864L176.074 31.6562H175.133L176.448 32.9726L177.405 32.9864Z" fill="#00D5FF"/>
<path d="M174.35 32.6638L173.344 31.6562H174.285L175.293 32.6638H174.35Z" fill="#00D5FF"/>
<path d="M172.165 32.2369L171.586 31.6562H172.528L173.108 32.2369H172.165Z" fill="#00D5FF"/>
<path d="M190.481 5.54468L188.656 5.09033L188.172 4.2832L189.977 4.73206L190.481 5.54468Z" fill="#00D5FF"/>
<path d="M188.632 3.09512L187.25 2.75195L187.736 3.55908L189.118 3.90224L188.632 3.09512Z" fill="#00D5FF"/>
<path d="M187.14 1.44376L186.344 1.24609L186.83 2.05322L187.624 2.25088L187.14 1.44376Z" fill="#00D5FF"/>
<path d="M178.602 5.54468L180.426 5.09033L180.912 4.2832L179.107 4.73206L178.602 5.54468Z" fill="#00D5FF"/>
<path d="M180.453 3.09512L181.837 2.75195L181.351 3.55908L179.969 3.90224L180.453 3.09512Z" fill="#00D5FF"/>
<path d="M181.945 1.44376L182.742 1.24609L182.256 2.05322L181.461 2.25088L181.945 1.44376Z" fill="#00D5FF"/>
<path d="M178.057 29.8047L177.422 30.4402H191.784L191.147 29.8047H178.057Z" fill="#00D5FF"/>
<path d="M196.042 20.7277L196.912 20.9542L189.631 8.57422L189.406 9.44448L196.042 20.7277Z" fill="#00D5FF"/>
<path d="M173.097 20.7277L172.227 20.9542L179.506 8.57422L179.732 9.44448L173.097 20.7277Z" fill="#00D5FF"/>
<path d="M201.227 28.2218L197.663 22.1602L197.438 23.0304L200.251 27.8169C200.577 27.9514 200.902 28.0873 201.227 28.2232V28.2218Z" fill="#00D5FF"/>
<path d="M167.953 28.2218L171.518 22.1602L171.744 23.0304L168.93 27.8169C168.605 27.9514 168.28 28.0873 167.954 28.2232L167.953 28.2218Z" fill="#00D5FF"/>
<path opacity="0.35" d="M174.526 26.1682L173.969 25.1401L183.829 8.37305H185.314L195.234 25.1401L194.677 26.1682H174.526Z" fill="url(#paint1_linear_529_794)"/>
<path opacity="0.4" d="M189.161 27.1895L189.604 26.7461H179.602L180.044 27.1895H189.161Z" fill="#00D5FF"/>
<path opacity="0.4" d="M188.566 12.0538L187.961 11.8945L193.003 20.5327L193.161 19.9273L188.566 12.0538Z" fill="#00D5FF"/>
<path opacity="0.4" d="M180.571 12.0538L181.178 11.8945L176.134 20.5327L175.977 19.9273L180.571 12.0538Z" fill="#00D5FF"/>
<path d="M185.234 21.2614H183.773L183.578 12.7207H185.428L185.234 21.2614ZM185.412 24.0863H183.595V22.2675H185.412V24.0863Z" fill="#00D5FF"/>
<g filter="url(#filter0_f_529_794)">
<path d="M360 117.5L342 132.5H278.5L262.5 143H107.5L92 132.5H27L10.5 118.5" stroke="#00D5FF"/>
</g>
<path d="M360 117.5L342 132.5H278.5L262.5 143H107.5L92 132.5H27L10.5 118.5" stroke="#00D5FF"/>
<defs>
<filter id="filter0_f_529_794" x="0.279688" y="107.215" width="369.941" height="46.1848" filterUnits="userSpaceOnUse" color-interpolation-filters="sRGB">
<feFlood flood-opacity="0" result="BackgroundImageFix"/>
<feBlend mode="normal" in="SourceGraphic" in2="BackgroundImageFix" result="shape"/>
<feGaussianBlur stdDeviation="4.95" result="effect1_foregroundBlur_529_794"/>
</filter>
<linearGradient id="paint0_linear_529_794" x1="184.597" y1="2.07555" x2="184.597" y2="29.7374" gradientUnits="userSpaceOnUse">
<stop stop-color="#00D5FF"/>
<stop offset="1" stop-color="#00D5FF"/>
</linearGradient>
<linearGradient id="paint1_linear_529_794" x1="184.601" y1="8.42795" x2="184.601" y2="25.7276" gradientUnits="userSpaceOnUse">
<stop stop-color="#00D5FF"/>
<stop offset="1" stop-color="#00D5FF"/>
</linearGradient>
</defs>
</svg>
