<svg width="41" height="35" viewBox="0 0 41 35" fill="none" xmlns="http://www.w3.org/2000/svg">
<path d="M38.4387 32.5556H2.39722L1 29.9854L1.05496 29.8913L18.6345 0H22.0958L22.1507 0.0940152L39.8373 29.9854L38.4401 32.5571L38.4387 32.5556ZM2.62431 32.1738H38.2116L39.3976 29.9926L21.8774 0.381852H18.8529L1.43971 29.9926L2.62576 32.1738H2.62431Z" fill="#267DFF"/>
<path d="M24.3403 2.40147L27.5658 7.86164L27.2678 9.01442L23.1875 2.10352L24.3403 2.40147Z" fill="#267DFF"/>
<path d="M28.0458 12.1749L24.8203 6.71478L25.1183 5.56055L29.1986 12.4715L28.0458 12.1749Z" fill="#267DFF"/>
<path d="M16.3881 2.40147L13.1641 7.86164L13.4606 9.01442L17.5409 2.10352L16.3881 2.40147Z" fill="#267DFF"/>
<path d="M12.6777 12.1749L15.9017 6.71478L15.6037 5.56055L11.5234 12.4715L12.6777 12.1749Z" fill="#267DFF"/>
<path opacity="0.17" d="M2.85624 31.7919L1.88281 29.9998L19.0762 0.763672H21.6638L38.9628 29.9998L37.9893 31.7919H2.85624Z" fill="#B3C4FF"/>
<path d="M14.7233 33.2431L8.38231 33.2562L7.53906 32.4158L15.5637 32.3984L14.7233 33.2431Z" fill="#267DFF"/>
<path d="M4.4263 31.4876L10.7673 31.4746L11.6106 32.315L3.58594 32.3323L4.4263 31.4876Z" fill="#267DFF"/>
<path d="M25.9888 33.2431L32.3284 33.2562L33.1731 32.4158L25.1484 32.3984L25.9888 33.2431Z" fill="#267DFF"/>
<path d="M36.2858 31.4876L29.9463 31.4746L29.1016 32.315L37.1276 32.3323L36.2858 31.4876Z" fill="#267DFF"/>
<path opacity="0.17" d="M4.00129 30.5206L3.375 29.3678L19.4489 2.03516H21.293L37.4652 29.3693L36.8404 30.5206H4.00129Z" fill="#267DFF"/>
<path d="M31.75 16.6875L39.6199 29.9886L38.5799 31.9022H39.6199L40.7799 30.0074L32.9259 17.0375L31.75 16.6875Z" fill="#267DFF"/>
<path d="M9.02989 16.6875L1.16001 29.9886L2.19998 31.9022H1.16001L0 30.0074L7.85541 17.0375L9.02989 16.6875Z" fill="#267DFF"/>
<path d="M33.5132 25.2956L23.6328 8.17308L23.7977 8.07617L33.6795 25.1987L33.5132 25.2956Z" fill="#267DFF"/>
<path d="M16.8904 8.09066L6.96094 25.1855L7.12603 25.2814L17.0555 8.18656L16.8904 8.09066Z" fill="#267DFF"/>
<path d="M10.5391 29.422V29.231L30.3085 29.1992V29.3901L10.5391 29.422Z" fill="#267DFF"/>
<path opacity="0.4" d="M28.5914 7.98047L28.3672 8.85265L32.7599 16.3031L33.5988 16.5518L28.5914 7.98047Z" fill="#267DFF"/>
<path opacity="0.4" d="M12.0778 7.98047L12.3019 8.85265L7.90778 16.3031L7.07031 16.5518L12.0778 7.98047Z" fill="#267DFF"/>
<path opacity="0.4" d="M14.7266 34.1201L15.3803 33.4648H25.3345L25.9868 34.1201H14.7266Z" fill="#267DFF"/>
<path d="M18.9367 11.4844H22.6395L20.1748 18.4416L23.7142 17.4696L19.3649 27.496L21.1555 20.0268L16.9609 21.0003L18.9367 11.4844Z" fill="#B3C4FF"/>
<path d="M34.4403 17.9618L34.945 16.6745L28.0775 5.00781H26.8438L34.4403 17.9618Z" fill="#267DFF"/>
<path d="M6.2953 17.8485L5.78906 16.5612L12.6566 4.89453H13.8918L6.2953 17.8485Z" fill="#267DFF"/>
<path d="M27.9219 34.1191L27.0454 35H13.6734L12.7969 34.1191H27.9219Z" fill="#267DFF"/>
</svg>
